<svg width="24" height="25" viewBox="0 0 24 25" fill="none" xmlns="http://www.w3.org/2000/svg">
<path d="M12.5007 22.912H4.0807C2.9207 22.912 1.9707 21.982 1.9707 20.842V6.00197C1.9707 3.38197 3.9207 2.19197 6.3107 3.36197L10.7507 5.54197C11.7107 6.01197 12.5007 7.26197 12.5007 8.32197V22.912Z" stroke="black" stroke-width="1.5" stroke-linecap="round" stroke-linejoin="round"/>
<path d="M21.97 15.9718V19.7518C21.97 21.9118 20.97 22.9118 18.81 22.9118H12.5V11.3318L12.97 11.4318L17.47 12.4418L19.5 12.8918C20.82 13.1818 21.9 13.8618 21.96 15.7818C21.97 15.8418 21.97 15.9018 21.97 15.9718Z" stroke="black" stroke-width="1.5" stroke-linecap="round" stroke-linejoin="round"/>
<path d="M5.5 9.91174H8.97" stroke="black" stroke-width="1.5" stroke-linecap="round" stroke-linejoin="round"/>
<path d="M5.5 13.9117H8.97" stroke="black" stroke-width="1.5" stroke-linecap="round" stroke-linejoin="round"/>
<path d="M17.4707 12.4416V15.6616C17.4707 16.9016 16.4607 17.9116 15.2207 17.9116C13.9807 17.9116 12.9707 16.9016 12.9707 15.6616V11.4316L17.4707 12.4416Z" stroke="black" stroke-width="1.5" stroke-linecap="round" stroke-linejoin="round"/>
<path d="M21.9607 15.7819C21.9007 16.9619 20.9207 17.9119 19.7207 17.9119C18.4807 17.9119 17.4707 16.9019 17.4707 15.6619V12.4419L19.5007 12.8919C20.8207 13.1819 21.9007 13.8619 21.9607 15.7819Z" stroke="black" stroke-width="1.5" stroke-linecap="round" stroke-linejoin="round"/>
</svg>
