<svg width="102" height="40" viewBox="0 0 102 40" fill="none" xmlns="http://www.w3.org/2000/svg">
<path d="M39.6404 4.87194C39.6404 7.55075 37.4472 9.74388 34.7684 9.74388C32.0896 9.74388 29.8965 7.55075 29.8965 4.87194C29.8965 2.19313 32.0896 0 34.7684 0C37.4472 0 39.6404 2.19313 39.6404 4.87194Z" fill="white"/>
<path d="M29.0388 5.72949H3.97334C2.14447 5.72949 0.619141 7.25482 0.619141 9.09128V35.9704C0.619141 37.7993 2.14447 39.3322 3.97334 39.3322H30.5489C32.3778 39.3322 33.9031 37.8069 33.9031 35.9704V10.6014C31.2243 10.6014 29.0312 8.4083 29.0312 5.72949" fill="white"/>
<path d="M27.4229 24.9593C27.4229 24.7924 27.5594 24.6482 27.734 24.6482H30.1775C30.3445 24.6482 30.4887 24.7848 30.4887 24.9593V27.4029C30.4887 27.5698 30.3521 27.714 30.1775 27.714H27.734C27.567 27.714 27.4229 27.5774 27.4229 27.4029" fill="#1F45FF"/>
<path d="M23.7715 17.6588C23.7715 17.4918 23.9081 17.3477 24.0826 17.3477H26.5262C26.6931 17.3477 26.8373 17.4843 26.8373 17.6588V20.1024C26.8373 20.2693 26.7007 20.4135 26.5262 20.4135H24.0826C23.9157 20.4135 23.7715 20.2769 23.7715 20.1024" fill="#1F45FF"/>
<path d="M23.7715 24.9593C23.7715 24.7924 23.9081 24.6482 24.0826 24.6482H26.5262C26.6931 24.6482 26.8373 24.7848 26.8373 24.9593V27.4029C26.8373 27.5698 26.7007 27.714 26.5262 27.714H24.0826C23.9157 27.714 23.7715 27.5774 23.7715 27.4029" fill="#1F45FF"/>
<path d="M16.4717 24.9593C16.4717 24.7924 16.6083 24.6482 16.7828 24.6482H19.2264C19.3933 24.6482 19.5375 24.7848 19.5375 24.9593V27.4029C19.5375 27.5698 19.4009 27.714 19.2264 27.714H16.7828C16.6159 27.714 16.4717 27.5774 16.4717 27.4029" fill="#1F45FF"/>
<path d="M12.8213 17.6588C12.8213 17.4918 12.9579 17.3477 13.1324 17.3477H15.576C15.7429 17.3477 15.8871 17.4918 15.8871 17.6588V20.1024C15.8871 20.2693 15.7429 20.4135 15.576 20.4135H13.1324C12.9655 20.4135 12.8213 20.2693 12.8213 20.1024" fill="#1F45FF"/>
<path d="M12.8213 24.9593C12.8213 24.7924 12.9579 24.6482 13.1324 24.6482H15.576C15.7429 24.6482 15.8871 24.7848 15.8871 24.9593V27.4029C15.8871 27.5698 15.7429 27.714 15.576 27.714H13.1324C12.9655 27.714 12.8213 27.5774 12.8213 27.4029" fill="#1F45FF"/>
<path d="M7.69922 24.9593C7.69922 24.7924 7.83582 24.6482 8.01036 24.6482H10.4539C10.6209 24.6482 10.7651 24.7848 10.7651 24.9593V27.4029C10.7651 27.5698 10.6209 27.714 10.4539 27.714H8.01036C7.8434 27.714 7.69922 27.5774 7.69922 27.4029" fill="#1F45FF"/>
<path d="M4.04102 17.6588C4.04102 17.4918 4.17761 17.3477 4.35215 17.3477H6.79571C6.96266 17.3477 7.10685 17.4843 7.10685 17.6588V20.1024C7.10685 20.2693 6.97025 20.4135 6.79571 20.4135H4.35215C4.1852 20.4135 4.04102 20.2769 4.04102 20.1024" fill="#1F45FF"/>
<path d="M4.04102 24.9593C4.04102 24.7924 4.17761 24.6482 4.35215 24.6482H6.79571C6.96266 24.6482 7.10685 24.7848 7.10685 24.9593V27.4029C7.10685 27.5698 6.97025 27.714 6.79571 27.714H4.35215C4.1852 27.714 4.04102 27.5774 4.04102 27.4029" fill="#1F45FF"/>
<path d="M4.04102 28.617C4.04102 28.4501 4.17761 28.3059 4.35215 28.3059H6.79571C6.96266 28.3059 7.10685 28.4501 7.10685 28.617V31.0606C7.10685 31.2276 6.97025 31.3717 6.79571 31.3717H4.35215C4.1852 31.3717 4.04102 31.2351 4.04102 31.0606" fill="#1F45FF"/>
<path d="M7.10685 34.7108C7.10685 34.8777 6.97025 35.0219 6.79571 35.0219H4.35215C4.1852 35.0219 4.04102 34.8777 4.04102 34.7108V32.2672C4.04102 32.1002 4.17761 31.9561 4.35215 31.9561H6.79571C6.96266 31.9561 7.10685 32.1002 7.10685 32.2672" fill="#1F45FF"/>
<path d="M7.10685 23.7525C7.10685 23.9194 6.97025 24.0636 6.79571 24.0636H4.35215C4.1852 24.0636 4.04102 23.927 4.04102 23.7525V21.3089C4.04102 21.142 4.17761 20.9978 4.35215 20.9978H6.79571C6.96266 20.9978 7.10685 21.1344 7.10685 21.3089" fill="#1F45FF"/>
<path d="M7.10685 12.7945C7.10685 12.9614 6.97025 13.1056 6.79571 13.1056H4.35215C4.1852 13.1056 4.04102 12.969 4.04102 12.7945V10.3509C4.04102 10.184 4.17761 10.0398 4.35215 10.0398H6.79571C6.96266 10.0398 7.10685 10.184 7.10685 10.3509" fill="#1F45FF"/>
<path d="M7.69922 28.617C7.69922 28.4501 7.83582 28.3059 8.01036 28.3059H10.4539C10.6209 28.3059 10.7651 28.4501 10.7651 28.617V31.0606C10.7651 31.2276 10.6209 31.3717 10.4539 31.3717H8.01036C7.8434 31.3717 7.69922 31.2351 7.69922 31.0606" fill="#1F45FF"/>
<path d="M10.7582 34.7108C10.7582 34.8777 10.6216 35.0219 10.4471 35.0219H8.00352C7.83657 35.0219 7.69238 34.8777 7.69238 34.7108V32.2672C7.69238 32.1002 7.82898 31.9561 8.00352 31.9561H10.4471C10.614 31.9561 10.7582 32.1002 10.7582 32.2672" fill="#1F45FF"/>
<path d="M10.7582 23.7525C10.7582 23.9194 10.6216 24.0636 10.4471 24.0636H8.00352C7.83657 24.0636 7.69238 23.927 7.69238 23.7525V21.3089C7.69238 21.142 7.82898 20.9978 8.00352 20.9978H10.4471C10.614 20.9978 10.7582 21.1344 10.7582 21.3089" fill="#1F45FF"/>
<path d="M10.7582 20.1024C10.7582 20.2693 10.6216 20.4135 10.4471 20.4135H8.00352C7.83657 20.4135 7.69238 20.2769 7.69238 20.1024V17.6588C7.69238 17.4918 7.82898 17.3477 8.00352 17.3477H10.4471C10.614 17.3477 10.7582 17.4918 10.7582 17.6588" fill="#1F45FF"/>
<path d="M10.7582 12.7945C10.7582 12.9614 10.6216 13.1056 10.4471 13.1056H8.00352C7.83657 13.1056 7.69238 12.969 7.69238 12.7945V10.3509C7.69238 10.184 7.82898 10.0398 8.00352 10.0398H10.4471C10.614 10.0398 10.7582 10.184 10.7582 10.3509" fill="#1F45FF"/>
<path d="M12.8213 28.617C12.8213 28.4501 12.9579 28.3059 13.1324 28.3059H15.576C15.7429 28.3059 15.8871 28.4425 15.8871 28.617V31.0606C15.8871 31.2276 15.7429 31.3717 15.576 31.3717H13.1324C12.9655 31.3717 12.8213 31.2351 12.8213 31.0606" fill="#1F45FF"/>
<path d="M15.8803 34.7108C15.8803 34.8777 15.7437 35.0219 15.5691 35.0219H13.1256C12.9586 35.0219 12.8145 34.8853 12.8145 34.7108V32.2672C12.8145 32.1002 12.951 31.9561 13.1256 31.9561H15.5691C15.7361 31.9561 15.8803 32.0927 15.8803 32.2672" fill="#1F45FF"/>
<path d="M15.8803 23.7525C15.8803 23.9194 15.7437 24.0636 15.5691 24.0636H13.1256C12.9586 24.0636 12.8145 23.927 12.8145 23.7525V21.3089C12.8145 21.142 12.951 20.9978 13.1256 20.9978H15.5691C15.7361 20.9978 15.8803 21.1344 15.8803 21.3089" fill="#1F45FF"/>
<path d="M16.4717 28.617C16.4717 28.4501 16.6083 28.3059 16.7828 28.3059H19.2264C19.3933 28.3059 19.5375 28.4425 19.5375 28.617V31.0606C19.5375 31.2276 19.4009 31.3717 19.2264 31.3717H16.7828C16.6159 31.3717 16.4717 31.2351 16.4717 31.0606" fill="#1F45FF"/>
<path d="M19.5297 34.7108C19.5297 34.8777 19.3931 35.0219 19.2186 35.0219H16.775C16.6081 35.0219 16.4639 34.8853 16.4639 34.7108V32.2672C16.4639 32.1002 16.6005 31.9561 16.775 31.9561H19.2186C19.3855 31.9561 19.5297 32.0927 19.5297 32.2672" fill="#1F45FF"/>
<path d="M19.5297 23.7525C19.5297 23.9194 19.3931 24.0636 19.2186 24.0636H16.775C16.6081 24.0636 16.4639 23.927 16.4639 23.7525V21.3089C16.4639 21.142 16.6005 20.9978 16.775 20.9978H19.2186C19.3855 20.9978 19.5297 21.1344 19.5297 21.3089" fill="#1F45FF"/>
<path d="M19.5297 20.1024C19.5297 20.2693 19.3931 20.4135 19.2186 20.4135H16.775C16.6081 20.4135 16.4639 20.2769 16.4639 20.1024V17.6588C16.4639 17.4918 16.6005 17.3477 16.775 17.3477H19.2186C19.3855 17.3477 19.5297 17.4918 19.5297 17.6588" fill="#1F45FF"/>
<path d="M23.1801 20.1024C23.1801 20.2693 23.0359 20.4135 22.869 20.4135H20.4254C20.2584 20.4135 20.1143 20.2769 20.1143 20.1024V17.6588C20.1143 17.4918 20.2509 17.3477 20.4254 17.3477H22.869C23.0359 17.3477 23.1801 17.4918 23.1801 17.6588" fill="#1F45FF"/>
<path d="M23.7715 28.617C23.7715 28.4501 23.9081 28.3059 24.0826 28.3059H26.5262C26.6931 28.3059 26.8373 28.4501 26.8373 28.617V31.0606C26.8373 31.2276 26.7007 31.3717 26.5262 31.3717H24.0826C23.9157 31.3717 23.7715 31.2351 23.7715 31.0606" fill="#1F45FF"/>
<path d="M26.8373 34.7108C26.8373 34.8777 26.7007 35.0219 26.5262 35.0219H24.0826C23.9157 35.0219 23.7715 34.8777 23.7715 34.7108V32.2672C23.7715 32.1002 23.9081 31.9561 24.0826 31.9561H26.5262C26.6931 31.9561 26.8373 32.1002 26.8373 32.2672" fill="#1F45FF"/>
<path d="M26.8373 23.7525C26.8373 23.9194 26.7007 24.0636 26.5262 24.0636H24.0826C23.9157 24.0636 23.7715 23.927 23.7715 23.7525V21.3089C23.7715 21.142 23.9081 20.9978 24.0826 20.9978H26.5262C26.6931 20.9978 26.8373 21.1344 26.8373 21.3089" fill="#1F45FF"/>
<path d="M27.4229 28.617C27.4229 28.4501 27.5594 28.3059 27.734 28.3059H30.1775C30.3445 28.3059 30.4887 28.4501 30.4887 28.617V31.0606C30.4887 31.2276 30.3521 31.3717 30.1775 31.3717H27.734C27.567 31.3717 27.4229 31.2351 27.4229 31.0606" fill="#1F45FF"/>
<path d="M30.4887 34.7108C30.4887 34.8777 30.3521 35.0219 30.1775 35.0219H27.734C27.567 35.0219 27.4229 34.8777 27.4229 34.7108V32.2672C27.4229 32.1002 27.567 31.9561 27.734 31.9561H30.1775C30.3445 31.9561 30.4887 32.1002 30.4887 32.2672" fill="#1F45FF"/>
<path d="M30.4887 23.7525C30.4887 23.9194 30.3521 24.0636 30.1775 24.0636H27.734C27.567 24.0636 27.4229 23.927 27.4229 23.7525V21.3089C27.4229 21.142 27.567 20.9978 27.734 20.9978H30.1775C30.3445 20.9978 30.4887 21.1344 30.4887 21.3089" fill="#1F45FF"/>
<path d="M41.0819 17.583H39.6855V24.1624H41.0819V17.583Z" fill="white"/>
<path d="M48.572 24.1624H46.7963L43.9353 19.1842H43.8974C43.9581 20.0645 43.9809 20.6868 43.9809 21.0662V24.1624H42.7363V17.583H44.4969L47.3578 22.5081H47.3882C47.3427 21.6505 47.3199 21.051 47.3199 20.6944V17.583H48.572" fill="white"/>
<path d="M53.0195 18.653C52.4959 18.653 52.0861 18.8503 51.7977 19.245C51.5093 19.6396 51.3652 20.1859 51.3652 20.8917C51.3652 22.3563 51.9191 23.0924 53.0195 23.0924C53.4824 23.0924 54.044 22.9786 54.6966 22.7433V23.912C54.1578 24.1397 53.5507 24.2459 52.8905 24.2459C51.9343 24.2459 51.1982 23.9575 50.6973 23.3732C50.1889 22.7889 49.9385 21.9617 49.9385 20.8765C49.9385 20.1935 50.0599 19.594 50.3103 19.078C50.5608 18.562 50.9174 18.1674 51.3803 17.8942C51.8432 17.621 52.3896 17.4844 53.0195 17.4844C53.6494 17.4844 54.302 17.6361 54.947 17.9473L54.4917 19.078C54.2489 18.9642 53.9984 18.8579 53.748 18.7745C53.4976 18.691 53.2547 18.6454 53.0119 18.6454" fill="white"/>
<path d="M61.4502 17.583V21.8403C61.4502 22.3259 61.344 22.7509 61.1239 23.1152C60.9039 23.4794 60.5927 23.7602 60.1829 23.9575C59.7731 24.1548 59.2875 24.2535 58.7259 24.2535C57.876 24.2535 57.2233 24.0334 56.7528 23.6008C56.2823 23.1683 56.0547 22.5764 56.0547 21.8251V17.583H57.4434V21.6126C57.4434 22.121 57.5421 22.4929 57.747 22.7281C57.9519 22.9634 58.2858 23.0848 58.7563 23.0848C59.2268 23.0848 59.5455 22.9634 59.7504 22.7281C59.9553 22.4929 60.0615 22.1135 60.0615 21.605V17.583" fill="white"/>
<path d="M63.0664 17.583H65.1154C66.0488 17.583 66.7242 17.7196 67.1491 17.9852C67.5741 18.2508 67.779 18.6758 67.779 19.2525C67.779 19.6471 67.6879 19.9659 67.5058 20.2239C67.3237 20.4743 67.0732 20.6261 66.7697 20.6792V20.7247C67.1871 20.8158 67.483 20.9903 67.6727 21.2483C67.8549 21.5064 67.9535 21.8403 67.9535 22.2652C67.9535 22.8647 67.7335 23.3352 67.3009 23.6691C66.8683 24.003 66.2764 24.17 65.5327 24.17H63.074M64.4551 20.1859H65.2671C65.6466 20.1859 65.9198 20.1252 66.0867 20.0114C66.2537 19.8976 66.3447 19.7003 66.3447 19.4346C66.3447 19.1842 66.2537 19.0021 66.0639 18.8959C65.8818 18.7896 65.5858 18.7289 65.1912 18.7289H64.4551V20.1935V20.1859ZM64.4551 21.2939V23.0089H65.3658C65.7528 23.0089 66.0336 22.933 66.2157 22.7889C66.3978 22.6447 66.4889 22.417 66.4889 22.1135C66.4889 21.5671 66.1019 21.2939 65.3202 21.2939H64.4551Z" fill="white"/>
<path d="M73.2806 24.1625L72.8025 22.5992H70.4045L69.9264 24.1625H68.4238L70.746 17.5603H72.4534L74.7832 24.1625M72.4686 21.4229C72.0285 20.0039 71.778 19.1995 71.7249 19.0173C71.6718 18.8352 71.6263 18.6834 71.6035 18.5772C71.5048 18.9642 71.2241 19.9128 70.7536 21.4229H72.4686Z" fill="white"/>
<path d="M81.0742 20.8082C81.0742 21.8934 80.7631 22.7206 80.1484 23.2973C79.5337 23.874 78.6458 24.1624 77.4772 24.1624H75.6104V17.583H77.6745C78.7445 17.583 79.5792 17.8638 80.1787 18.4329C80.7707 19.0021 81.0666 19.7913 81.0666 20.8082M79.6248 20.8461C79.6248 19.4346 79.0025 18.7289 77.7504 18.7289H77.0067V23.0089H77.6062C78.9494 23.0089 79.6248 22.288 79.6248 20.8461Z" fill="white"/>
<path d="M88.405 20.8614C88.405 21.9465 88.1318 22.7889 87.593 23.3732C87.0542 23.9575 86.2801 24.2535 85.2709 24.2535C84.2616 24.2535 83.4875 23.9651 82.9487 23.3732C82.4099 22.7889 82.1367 21.9465 82.1367 20.8538C82.1367 19.761 82.4099 18.9187 82.9487 18.3419C83.4875 17.7652 84.2691 17.4768 85.2784 17.4768C86.2877 17.4768 87.0618 17.7652 87.6006 18.3495C88.1318 18.9338 88.405 19.7686 88.405 20.8614ZM83.6089 20.8614C83.6089 21.5975 83.7455 22.1514 84.0263 22.5233C84.3071 22.8951 84.7245 23.0849 85.2784 23.0849C86.394 23.0849 86.948 22.3487 86.948 20.869C86.948 19.3892 86.394 18.6455 85.286 18.6455C84.7321 18.6455 84.3147 18.8352 84.0339 19.207C83.7531 19.5789 83.6089 20.1328 83.6089 20.869" fill="white"/>
<path d="M91.1678 21.6354V24.1624H89.7715V17.583H91.6914C92.5869 17.583 93.2471 17.7424 93.6721 18.0687C94.1046 18.395 94.3171 18.8883 94.3171 19.5485C94.3171 19.9355 94.2109 20.277 93.9984 20.5805C93.7859 20.8841 93.4824 21.1193 93.0953 21.2863C94.0894 22.7661 94.7269 23.7223 95.0304 24.1548H93.4824L91.9115 21.6278M91.1678 20.5047H91.6155C92.0557 20.5047 92.382 20.4288 92.5945 20.2846C92.807 20.1404 92.9056 19.9051 92.9056 19.594C92.9056 19.2829 92.7994 19.0628 92.5869 18.9262C92.3744 18.7972 92.0405 18.7289 91.5928 18.7289H91.1678V20.5047Z" fill="white"/>
<path d="M99.8792 24.1625L99.4011 22.5992H97.0031L96.525 24.1625H95.0225L97.3446 17.5603H99.0521L101.382 24.1625M99.0748 21.4229C98.6347 20.0039 98.3842 19.1995 98.3311 19.0173C98.278 18.8352 98.2325 18.6834 98.2097 18.5772C98.1111 18.9642 97.8303 19.9128 97.3598 21.4229H99.0748Z" fill="white"/>
<path d="M39.9973 26.4846H39.4736V30.9619H39.9973V26.4846Z" fill="white"/>
<path d="M43.442 30.9618V28.7914C43.442 28.5182 43.3812 28.3134 43.2522 28.1768C43.1232 28.0402 42.9335 27.9719 42.6679 27.9719C42.3188 27.9719 42.0608 28.0705 41.8939 28.2602C41.7345 28.45 41.651 28.7611 41.651 29.2012V30.9618H41.1426V27.6H41.56L41.6434 28.0629H41.6662C41.7724 27.896 41.9166 27.767 42.1063 27.6759C42.2961 27.5848 42.501 27.5393 42.7362 27.5393C43.1384 27.5393 43.442 27.638 43.6468 27.8353C43.8517 28.0326 43.9504 28.3437 43.9504 28.7687V30.9618" fill="white"/>
<path d="M47.1612 30.0436C47.1612 30.3547 47.0473 30.5975 46.8121 30.7645C46.5768 30.9315 46.2505 31.0149 45.8332 31.0149C45.3854 31.0149 45.0439 30.9466 44.7935 30.8024V30.3319C44.9529 30.4154 45.1274 30.4761 45.3095 30.5217C45.4917 30.5672 45.6738 30.59 45.8407 30.59C46.1063 30.59 46.3112 30.5444 46.4554 30.461C46.5996 30.3775 46.6679 30.2485 46.6679 30.0739C46.6679 29.9449 46.6148 29.8311 46.501 29.74C46.3871 29.649 46.1671 29.5351 45.8407 29.4137C45.5296 29.2999 45.3095 29.1936 45.1729 29.1102C45.0439 29.0267 44.9453 28.928 44.877 28.8142C44.8163 28.708 44.7783 28.5714 44.7783 28.4196C44.7783 28.1464 44.8922 27.9339 45.1122 27.7746C45.3323 27.6152 45.6434 27.5393 46.0305 27.5393C46.3947 27.5393 46.7438 27.6152 47.0929 27.7594L46.9107 28.1768C46.5768 28.0402 46.2657 27.9719 45.9925 27.9719C45.7497 27.9719 45.5675 28.0098 45.4461 28.0857C45.3247 28.1616 45.264 28.2678 45.264 28.3968C45.264 28.4879 45.2868 28.5638 45.3323 28.6245C45.3778 28.6852 45.4537 28.7459 45.5524 28.8066C45.651 28.8673 45.8483 28.9508 46.1443 29.057C46.5389 29.2012 46.8121 29.3454 46.9487 29.4972C47.0853 29.6414 47.1612 29.8311 47.1612 30.0512" fill="white"/>
<path d="M49.0732 30.6053C49.1642 30.6053 49.2477 30.6053 49.3312 30.5826C49.4147 30.5674 49.483 30.5598 49.5285 30.5446V30.9316C49.4754 30.962 49.3919 30.9772 49.2857 30.9999C49.1794 31.0151 49.0808 31.0227 48.9973 31.0227C48.3523 31.0227 48.0259 30.6812 48.0259 29.9982V28.0024H47.5479V27.7596L48.0259 27.5471L48.2384 26.8337H48.5344V27.6078H49.5057V28.0024H48.5344V29.9755C48.5344 30.1804 48.5799 30.3321 48.6786 30.4384C48.7772 30.5446 48.9062 30.5977 49.0732 30.5977" fill="white"/>
<path d="M50.1582 26.697C50.1582 26.5831 50.1886 26.4921 50.2417 26.4389C50.3024 26.3858 50.3707 26.3555 50.4542 26.3555C50.5376 26.3555 50.6059 26.3858 50.6666 26.4389C50.7274 26.4921 50.7577 26.5755 50.7577 26.6894C50.7577 26.8032 50.7274 26.8867 50.6666 26.9474C50.6059 27.0005 50.5376 27.0309 50.4542 27.0309C50.3707 27.0309 50.2948 27.0005 50.2417 26.9474C50.181 26.8943 50.1582 26.8032 50.1582 26.6894M50.7122 30.9618H50.2037V27.6H50.7122V30.9618Z" fill="white"/>
<path d="M52.8749 30.6053C52.966 30.6053 53.0495 30.6053 53.133 30.5826C53.2164 30.5674 53.2847 30.5598 53.3303 30.5446V30.9316C53.2771 30.962 53.1937 30.9772 53.0874 30.9999C52.9812 31.0151 52.8825 31.0227 52.7991 31.0227C52.154 31.0227 51.8277 30.6812 51.8277 29.9982V28.0024H51.3496V27.7596L51.8277 27.5471L52.0402 26.8337H52.3361V27.6078H53.3075V28.0024H52.3361V29.9755C52.3361 30.1804 52.3817 30.3321 52.4803 30.4384C52.579 30.5446 52.708 30.5977 52.8749 30.5977" fill="white"/>
<path d="M54.4838 27.6077V29.7856C54.4838 30.0588 54.5445 30.2637 54.6735 30.4003C54.8025 30.5369 54.9922 30.6052 55.2578 30.6052C55.6069 30.6052 55.8649 30.5065 56.0319 30.3168C56.1913 30.1271 56.2747 29.8084 56.2747 29.3758V27.6077H56.7832V30.9695H56.3658L56.2899 30.5217H56.2596C56.1533 30.6887 56.0091 30.8101 55.827 30.9012C55.6449 30.9922 55.4324 31.0302 55.1896 31.0302C54.7798 31.0302 54.4762 30.9315 54.2713 30.7418C54.0664 30.5445 53.9678 30.2409 53.9678 29.8084V27.6077" fill="white"/>
<path d="M58.9384 30.6053C59.0295 30.6053 59.113 30.6053 59.1964 30.5826C59.2799 30.5674 59.3482 30.5598 59.3937 30.5446V30.9316C59.3406 30.962 59.2571 30.9772 59.1509 30.9999C59.0447 31.0151 58.946 31.0227 58.8625 31.0227C58.2175 31.0227 57.8912 30.6812 57.8912 29.9982V28.0024H57.4131V27.7596L57.8912 27.5471L58.1037 26.8337H58.3996V27.6078H59.371V28.0024H58.3996V29.9755C58.3996 30.1804 58.4452 30.3321 58.5438 30.4384C58.6425 30.5446 58.7715 30.5977 58.9384 30.5977" fill="white"/>
<path d="M62.9677 29.2771C62.9677 29.8235 62.8311 30.2485 62.5579 30.5596C62.2847 30.8707 61.8977 31.0225 61.412 31.0225C61.1085 31.0225 60.8429 30.9542 60.6152 30.81C60.38 30.6734 60.2054 30.4685 60.0764 30.2029C59.9474 29.9373 59.8867 29.6338 59.8867 29.2771C59.8867 28.7307 60.0233 28.3058 60.2965 27.9946C60.5697 27.6911 60.9491 27.5393 61.4348 27.5393C61.9205 27.5393 62.2772 27.6987 62.5579 28.0098C62.8311 28.3209 62.9753 28.7459 62.9753 29.2771M60.4103 29.2771C60.4103 29.7097 60.4938 30.036 60.6684 30.2561C60.8429 30.4837 61.0933 30.59 61.4272 30.59C61.7611 30.59 62.0116 30.4761 62.1861 30.2561C62.3606 30.036 62.4441 29.7021 62.4441 29.2771C62.4441 28.8522 62.3606 28.5258 62.1861 28.3058C62.0116 28.0857 61.7611 27.9719 61.4196 27.9719C61.0781 27.9719 60.8353 28.0781 60.6684 28.2982C60.5014 28.5182 60.4179 28.8446 60.4179 29.2771" fill="white"/>
<path d="M66.0863 30.9619H65.5703V26.4846H68.0594V26.9475H66.0863V28.5867H67.9456V29.0496H66.0863" fill="white"/>
<path d="M70.1469 31.0225C69.646 31.0225 69.259 30.8707 68.9706 30.5672C68.6823 30.2636 68.5381 29.8463 68.5381 29.3075C68.5381 28.7687 68.6747 28.3361 68.9403 28.0174C69.2059 27.6987 69.5626 27.5393 70.0103 27.5393C70.4353 27.5393 70.7616 27.6759 71.012 27.9567C71.2548 28.2375 71.3763 28.6017 71.3763 29.0495V29.3682H69.0617C69.0693 29.7628 69.1755 30.0588 69.3577 30.2636C69.5474 30.4685 69.813 30.5672 70.1545 30.5672C70.5187 30.5672 70.8754 30.4913 71.2245 30.3395V30.7949C71.0424 30.8707 70.8754 30.9315 70.716 30.9618C70.5567 30.9997 70.3594 31.0149 70.1393 31.0149M70.0103 27.9719C69.7447 27.9719 69.5246 28.0629 69.3653 28.2375C69.2059 28.412 69.1148 28.6548 69.0845 28.966H70.8375C70.8375 28.6473 70.7692 28.3968 70.625 28.2299C70.4808 28.0553 70.2759 27.9719 70.0103 27.9719Z" fill="white"/>
<path d="M74.5327 30.5143H74.51C74.2747 30.8558 73.9256 31.0227 73.4551 31.0227C73.015 31.0227 72.6735 30.8709 72.4307 30.575C72.1878 30.2714 72.0664 29.8465 72.0664 29.2925C72.0664 28.7385 72.1878 28.306 72.4307 28.0024C72.6735 27.6989 73.015 27.5395 73.4551 27.5395C73.8953 27.5395 74.2595 27.7065 74.5024 28.0328H74.5403L74.5176 27.7899V27.5547L74.51 26.1887H75.0184V30.9544H74.6086M73.5158 30.5978C73.8649 30.5978 74.1154 30.5067 74.2671 30.317C74.4265 30.1273 74.5024 29.8237 74.5024 29.4063V29.3001C74.5024 28.822 74.4265 28.4881 74.2671 28.2832C74.1078 28.0783 73.8573 27.9797 73.5083 27.9797C73.2123 27.9797 72.9846 28.0935 72.8253 28.3287C72.6659 28.564 72.59 28.8903 72.59 29.3077C72.59 29.7251 72.6659 30.059 72.8253 30.279C72.9846 30.4991 73.2123 30.6053 73.5158 30.6053" fill="white"/>
<path d="M77.5151 31.0225C77.0142 31.0225 76.6272 30.8707 76.3388 30.5672C76.0504 30.2636 75.9062 29.8463 75.9062 29.3075C75.9062 28.7687 76.0428 28.3361 76.3084 28.0174C76.5741 27.6987 76.9307 27.5393 77.3785 27.5393C77.8034 27.5393 78.1297 27.6759 78.3802 27.9567C78.623 28.2375 78.7444 28.6017 78.7444 29.0495V29.3682H76.4299C76.4375 29.7628 76.5437 30.0588 76.7258 30.2636C76.908 30.4685 77.1811 30.5672 77.5226 30.5672C77.8869 30.5672 78.2436 30.4913 78.5926 30.3395V30.7949C78.4105 30.8707 78.2436 30.9315 78.0842 30.9618C77.9248 30.9997 77.7275 31.0149 77.5075 31.0149M77.3709 27.9719C77.0977 27.9719 76.8852 28.0629 76.7258 28.2375C76.5665 28.412 76.4754 28.6548 76.445 28.966H78.198C78.198 28.6473 78.1297 28.3968 77.9856 28.2299C77.8414 28.0553 77.6365 27.9719 77.3709 27.9719Z" fill="white"/>
<path d="M81.1425 27.5469C81.2943 27.5469 81.4233 27.5621 81.5447 27.5848L81.4764 28.0553C81.3398 28.025 81.2184 28.0098 81.1122 28.0098C80.839 28.0098 80.6113 28.1236 80.414 28.3437C80.2243 28.5638 80.1256 28.837 80.1256 29.1709V30.9694H79.6172V27.6076H80.0346L80.0953 28.2299H80.118C80.2395 28.0098 80.3912 27.8428 80.5658 27.7214C80.7403 27.6 80.9376 27.5469 81.1425 27.5469Z" fill="white"/>
<path d="M84.2384 30.9618L84.1321 30.4837H84.1094C83.9424 30.6962 83.7755 30.8328 83.6085 30.9087C83.4416 30.9846 83.2367 31.0225 82.9862 31.0225C82.6523 31.0225 82.3943 30.939 82.2046 30.7645C82.0149 30.5899 81.9238 30.3471 81.9238 30.0284C81.9238 29.353 82.4626 28.9963 83.5478 28.966L84.117 28.9508V28.7383C84.117 28.4727 84.0638 28.283 83.95 28.154C83.8362 28.025 83.654 27.9643 83.4036 27.9643C83.1228 27.9643 82.8041 28.0477 82.455 28.2223L82.3033 27.8352C82.4702 27.7442 82.6523 27.6759 82.8496 27.6228C83.047 27.5696 83.2443 27.5469 83.4416 27.5469C83.8438 27.5469 84.1397 27.6379 84.3294 27.8125C84.5192 27.987 84.6178 28.2754 84.6178 28.67V30.9618M83.0925 30.6051C83.4112 30.6051 83.6616 30.5216 83.8362 30.3471C84.0183 30.1726 84.1094 29.9297 84.1094 29.6186V29.315L83.6009 29.3378C83.1987 29.353 82.9028 29.4137 82.7282 29.5275C82.5537 29.6414 82.4626 29.8159 82.4626 30.0511C82.4626 30.2333 82.5157 30.3775 82.6296 30.4685C82.7434 30.5672 82.8952 30.6127 83.1001 30.6127" fill="white"/>
<path d="M86.1745 26.1963H85.666V30.962H86.1745V26.1963Z" fill="white"/>
<path d="M41.9703 38.4898H39.4736V34.0125H41.9703V34.4754H39.9897V35.9172H41.8489V36.3801H39.9897V38.0269H41.9703" fill="white"/>
<path d="M45.0508 37.5792C45.0508 37.8903 44.937 38.1332 44.7017 38.3001C44.4665 38.4671 44.1402 38.5581 43.7228 38.5581C43.2751 38.5581 42.926 38.4898 42.6831 38.3457V37.8752C42.8425 37.9586 43.017 38.0193 43.1992 38.0649C43.3813 38.1104 43.5634 38.1332 43.7304 38.1332C43.996 38.1332 44.2009 38.0876 44.3451 38.0042C44.4893 37.9207 44.5576 37.7917 44.5576 37.6171C44.5576 37.4881 44.5044 37.3743 44.3906 37.2832C44.2768 37.1922 44.0567 37.0783 43.7304 36.9569C43.4193 36.8431 43.1916 36.7369 43.0626 36.6534C42.9336 36.5699 42.8349 36.4713 42.7666 36.3574C42.6983 36.2436 42.668 36.1146 42.668 35.9628C42.668 35.6896 42.7818 35.4695 43.0019 35.3178C43.2219 35.1584 43.5331 35.0825 43.9201 35.0825C44.2844 35.0825 44.6334 35.1584 44.9825 35.3026L44.8004 35.72C44.4589 35.5834 44.1554 35.5075 43.8822 35.5075C43.6393 35.5075 43.4572 35.5454 43.3358 35.6213C43.2144 35.6972 43.1536 35.8034 43.1536 35.9325C43.1536 36.0235 43.1764 36.0994 43.2219 36.1601C43.2675 36.2208 43.3434 36.2815 43.442 36.3422C43.5407 36.3954 43.738 36.4788 44.0339 36.5927C44.4285 36.7369 44.7017 36.881 44.8383 37.0328C44.9749 37.177 45.0508 37.3667 45.0508 37.5868" fill="white"/>
<path d="M47.4412 38.5506C47.2211 38.5506 47.0238 38.5126 46.8417 38.4292C46.6596 38.3457 46.5078 38.2243 46.3864 38.0573H46.3484C46.3712 38.2546 46.3864 38.4368 46.3864 38.6113V39.9924H45.8779V35.1281H46.2953L46.3636 35.591H46.3864C46.5154 35.4089 46.6672 35.2723 46.8417 35.1888C47.0162 35.1053 47.2135 35.0674 47.4412 35.0674C47.8889 35.0674 48.2304 35.2192 48.4733 35.5227C48.7161 35.8263 48.8375 36.2512 48.8375 36.8052C48.8375 37.3592 48.7161 37.7841 48.4657 38.0877C48.2228 38.3912 47.8738 38.543 47.4412 38.543M47.3653 35.5075C47.0238 35.5075 46.7734 35.5986 46.6216 35.7959C46.4698 35.9856 46.394 36.2892 46.3864 36.7065V36.8204C46.3864 37.2909 46.4623 37.6324 46.6216 37.8297C46.781 38.0346 47.0314 38.1332 47.3805 38.1332C47.6689 38.1332 47.8965 38.0194 48.0635 37.7841C48.2304 37.5489 48.3063 37.2226 48.3063 36.8128C48.3063 36.403 48.2228 36.0767 48.0635 35.849C47.8965 35.6289 47.6689 35.5151 47.3729 35.5151" fill="white"/>
<path d="M49.7029 34.6121C49.8016 34.4831 49.9078 34.3313 50.0216 34.1492C50.1355 33.9671 50.2265 33.8153 50.2872 33.6787H50.9019V33.747C50.8109 33.876 50.6743 34.043 50.4997 34.2403C50.3252 34.4376 50.1658 34.5818 50.0368 34.688H49.6953M50.2265 38.4899H49.7181V35.1282H50.2265V38.4899Z" fill="white"/>
<path d="M52.8368 35.075C52.9886 35.075 53.1176 35.0901 53.239 35.1129L53.1708 35.5834C53.0342 35.553 52.9127 35.5379 52.8065 35.5379C52.5333 35.5379 52.3056 35.6517 52.1083 35.8718C51.9186 36.0918 51.82 36.365 51.82 36.6989V38.4975H51.3115V35.1357H51.7289L51.7896 35.7579H51.8124C51.9338 35.5379 52.0856 35.3709 52.2601 35.2495C52.4346 35.1281 52.632 35.075 52.8368 35.075Z" fill="white"/>
<path d="M53.8232 34.225C53.8232 34.1112 53.8536 34.0201 53.9067 33.967C53.9674 33.9139 54.0357 33.8835 54.1192 33.8835C54.2027 33.8835 54.271 33.9139 54.3317 33.967C54.3924 34.0201 54.4227 34.1036 54.4227 34.2174C54.4227 34.3313 54.3924 34.4148 54.3317 34.4755C54.271 34.5286 54.2027 34.5589 54.1192 34.5589C54.0357 34.5589 53.9598 34.5286 53.9067 34.4755C53.8536 34.4223 53.8232 34.3313 53.8232 34.2174M54.3772 38.4899H53.8688V35.1281H54.3772V38.4899Z" fill="white"/>
<path d="M56.54 38.1332C56.631 38.1332 56.7145 38.1332 56.798 38.1104C56.8815 38.0952 56.9498 38.0876 56.9953 38.0724V38.4595C56.9422 38.4822 56.8587 38.505 56.7525 38.5278C56.6462 38.5429 56.5476 38.5505 56.4641 38.5505C55.8115 38.5505 55.4927 38.209 55.4927 37.5261V35.5302H55.0146V35.2874L55.4927 35.0749L55.7052 34.3616H56.0012V35.1356H56.9725V35.5302H56.0012V37.5033C56.0012 37.7082 56.0467 37.86 56.1454 37.9662C56.244 38.0724 56.373 38.1256 56.54 38.1256" fill="white"/>
<path d="M60.5691 36.8128C60.5691 37.3591 60.4325 37.7841 60.1517 38.0953C59.8785 38.4064 59.4991 38.5582 59.0058 38.5582C58.7022 38.5582 58.4366 38.4899 58.209 38.3457C57.9737 38.2091 57.7992 38.0042 57.6702 37.7386C57.5412 37.473 57.4805 37.1694 57.4805 36.8128C57.4805 36.2664 57.6171 35.8414 57.8903 35.5303C58.1635 35.2267 58.5429 35.075 59.0286 35.075C59.5142 35.075 59.8709 35.2343 60.1517 35.5454C60.4249 35.8566 60.5691 36.2816 60.5691 36.8128ZM58.0117 36.8128C58.0117 37.2377 58.0952 37.564 58.2697 37.7917C58.4442 38.0194 58.6947 38.1256 59.021 38.1256C59.3473 38.1256 59.6053 38.0118 59.7798 37.7917C59.9544 37.564 60.0379 37.2377 60.0379 36.8128C60.0379 36.3878 59.9544 36.0615 59.7798 35.8414C59.6053 35.6213 59.3549 35.5075 59.0134 35.5075C58.6719 35.5075 58.4291 35.6137 58.2621 35.8338C58.0952 36.0539 58.0117 36.3802 58.0117 36.8128Z" fill="white"/>
<path d="M65.6924 37.2985C65.6924 37.6931 65.5482 38.0042 65.2598 38.2243C64.9714 38.4444 64.5844 38.5582 64.0987 38.5582C63.5675 38.5582 63.1577 38.4899 62.877 38.3533V37.8525C63.0591 37.9284 63.264 37.9891 63.4765 38.0346C63.6965 38.0801 63.909 38.1029 64.1215 38.1029C64.4706 38.1029 64.7286 38.0346 64.9031 37.9056C65.0777 37.7766 65.1687 37.5869 65.1687 37.3592C65.1687 37.1998 65.1384 37.0784 65.0777 36.9798C65.017 36.8811 64.9107 36.7901 64.7665 36.7066C64.6224 36.6231 64.4023 36.5245 64.0987 36.4182C63.6814 36.2664 63.3854 36.0919 63.2033 35.887C63.0211 35.6821 62.9377 35.4165 62.9377 35.0902C62.9377 34.7487 63.0667 34.4679 63.3247 34.263C63.5827 34.0581 63.9242 33.9595 64.3567 33.9595C64.7893 33.9595 65.2143 34.0429 65.5861 34.2023L65.4268 34.6576C65.0549 34.4983 64.6982 34.4224 64.3492 34.4224C64.076 34.4224 63.8559 34.4831 63.7041 34.5969C63.5523 34.7183 63.4689 34.8777 63.4689 35.0902C63.4689 35.242 63.4992 35.371 63.5523 35.4696C63.6131 35.5683 63.7041 35.6593 63.8407 35.7428C63.9773 35.8263 64.1822 35.9174 64.463 36.016C64.9335 36.183 65.2522 36.3651 65.4343 36.5548C65.6089 36.7445 65.6999 36.995 65.6999 37.3061" fill="white"/>
<path d="M68.5987 38.4898L68.4925 38.0118H68.4697C68.3028 38.2242 68.1358 38.3608 67.9689 38.4367C67.8019 38.5126 67.597 38.5506 67.3466 38.5506C67.0127 38.5506 66.7547 38.4671 66.565 38.2925C66.3752 38.118 66.2842 37.8752 66.2842 37.564C66.2842 36.8886 66.823 36.532 67.9082 36.494L68.4773 36.4788V36.2739C68.4773 36.0083 68.4242 35.8186 68.3104 35.6896C68.1965 35.5606 68.0144 35.4999 67.764 35.4999C67.4832 35.4999 67.1645 35.5834 66.8154 35.7579L66.656 35.3709C66.823 35.2798 67.0051 35.2115 67.2024 35.1584C67.3997 35.1053 67.597 35.0825 67.7943 35.0825C68.1965 35.0825 68.4925 35.1736 68.6822 35.3481C68.8719 35.5227 68.9706 35.811 68.9706 36.2056V38.4974M67.4528 38.1332C67.7716 38.1332 68.022 38.0497 68.1965 37.8752C68.3711 37.7006 68.4697 37.4578 68.4697 37.1466V36.8431L67.9613 36.8659C67.5591 36.881 67.2631 36.9418 67.0886 37.0556C66.9065 37.1694 66.823 37.3364 66.823 37.5716C66.823 37.7537 66.8761 37.8979 66.9899 37.989C67.1038 38.0876 67.2555 38.1332 67.4604 38.1332" fill="white"/>
<path d="M72.3248 38.4899V36.3195C72.3248 36.0463 72.2641 35.8414 72.135 35.7048C72.006 35.5682 71.8163 35.4999 71.5507 35.4999C71.2016 35.4999 70.9436 35.5986 70.7767 35.7883C70.6173 35.978 70.5338 36.2892 70.5338 36.7293V38.4899H70.0254V35.1281H70.4428L70.5262 35.591H70.549C70.6553 35.4241 70.7994 35.295 70.9892 35.204C71.1789 35.1129 71.3838 35.0674 71.619 35.0674C72.0212 35.0674 72.3248 35.166 72.5297 35.3633C72.7346 35.5606 72.8332 35.8718 72.8332 36.2968V38.4899" fill="white"/>
<path d="M74.9579 38.1332C75.049 38.1332 75.1325 38.1332 75.216 38.1104C75.2994 38.0952 75.3677 38.0876 75.4133 38.0724V38.4595C75.3601 38.4822 75.2767 38.505 75.1704 38.5278C75.0642 38.5429 74.9655 38.5505 74.8821 38.5505C74.237 38.5505 73.9107 38.209 73.9107 37.5261V35.5302H73.4326V35.2874L73.9107 35.0749L74.1232 34.3616H74.4191V35.1356H75.3905V35.5302H74.4191V37.5033C74.4191 37.7082 74.4647 37.86 74.5633 37.9662C74.662 38.0724 74.791 38.1256 74.9579 38.1256" fill="white"/>
<path d="M78.9873 36.8128C78.9873 37.3591 78.8507 37.7841 78.5775 38.0953C78.3043 38.4064 77.9173 38.5582 77.4316 38.5582C77.128 38.5582 76.8624 38.4899 76.6348 38.3457C76.4071 38.2091 76.225 38.0042 76.096 37.7386C75.967 37.473 75.9062 37.1694 75.9062 36.8128C75.9062 36.2664 76.0428 35.8414 76.316 35.5303C76.5892 35.2267 76.9687 35.075 77.4543 35.075C77.94 35.075 78.2967 35.2343 78.5699 35.5454C78.8507 35.8566 78.9873 36.2816 78.9873 36.8128ZM76.4299 36.8128C76.4299 37.2377 76.5133 37.564 76.6879 37.7917C76.8624 38.0194 77.1129 38.1256 77.4468 38.1256C77.7807 38.1256 78.0311 38.0118 78.2056 37.7917C78.3802 37.564 78.4636 37.2377 78.4636 36.8128C78.4636 36.3878 78.3802 36.0615 78.2056 35.8414C78.0311 35.6213 77.7807 35.5075 77.4392 35.5075C77.0977 35.5075 76.8548 35.6137 76.6879 35.8338C76.5209 36.0539 76.4299 36.3802 76.4299 36.8128Z" fill="white"/>
</svg>
