<svg width="24" height="24" viewBox="0 0 24 24" fill="none" xmlns="http://www.w3.org/2000/svg">
<path d="M12 19.6523C14.2091 19.6523 16 17.8615 16 15.6523C16 13.4432 14.2091 11.6523 12 11.6523C9.79086 11.6523 8 13.4432 8 15.6523C8 17.8615 9.79086 19.6523 12 19.6523Z" stroke="black" stroke-width="1.5" stroke-miterlimit="10" stroke-linecap="round" stroke-linejoin="round"/>
<path d="M10.4404 15.6524L11.0904 16.3024C11.2804 16.4924 11.5904 16.5024 11.7804 16.3124L13.5604 14.6724" stroke="black" stroke-width="1.5" stroke-linecap="round" stroke-linejoin="round"/>
<path d="M8.99983 22.6523H14.9998C19.0198 22.6523 19.7398 21.0423 19.9498 19.0823L20.6998 13.0823C20.9698 10.6423 20.2698 8.65234 15.9998 8.65234H7.99983C3.72983 8.65234 3.02983 10.6423 3.29983 13.0823L4.04983 19.0823C4.25983 21.0423 4.97983 22.6523 8.99983 22.6523Z" stroke="black" stroke-width="1.5" stroke-miterlimit="10" stroke-linecap="round" stroke-linejoin="round"/>
<path d="M7.5 8.32235V7.35235C7.5 5.10235 9.31 2.89235 11.56 2.68235C14.24 2.42235 16.5 4.53235 16.5 7.16235V8.54235" stroke="black" stroke-width="1.5" stroke-miterlimit="10" stroke-linecap="round" stroke-linejoin="round"/>
</svg>