<svg width="24" height="25" viewBox="0 0 24 25" fill="none" xmlns="http://www.w3.org/2000/svg">
<path d="M18.4698 17.7416L18.8598 20.9016C18.9598 21.7316 18.0698 22.3116 17.3598 21.8816L13.1698 19.3916C12.7098 19.3916 12.2599 19.3616 11.8199 19.3016C12.5599 18.4316 12.9998 17.3316 12.9998 16.1416C12.9998 13.3016 10.5398 11.0016 7.49985 11.0016C6.33985 11.0016 5.26985 11.3316 4.37985 11.9116C4.34985 11.6616 4.33984 11.4116 4.33984 11.1516C4.33984 6.60161 8.28985 2.91162 13.1698 2.91162C18.0498 2.91162 21.9998 6.60161 21.9998 11.1516C21.9998 13.8516 20.6098 16.2416 18.4698 17.7416Z" stroke="black" stroke-width="1.5" stroke-linecap="round" stroke-linejoin="round"/>
<path d="M13 16.1417C13 17.3317 12.56 18.4317 11.82 19.3017C10.83 20.5017 9.26 21.2717 7.5 21.2717L4.89 22.8217C4.45 23.0917 3.89 22.7217 3.95 22.2117L4.2 20.2417C2.86 19.3117 2 17.8217 2 16.1417C2 14.3817 2.94 12.8317 4.38 11.9117C5.27 11.3317 6.34 11.0017 7.5 11.0017C10.54 11.0017 13 13.3017 13 16.1417Z" stroke="black" stroke-width="1.5" stroke-linecap="round" stroke-linejoin="round"/>
</svg>
