<svg viewBox="0 0 102 31" fill="none" xmlns="http://www.w3.org/2000/svg">
<path d="M13.7197 1.09777C13.7206 0.595144 14.254 0.296615 14.6712 0.576884C14.8382 0.689083 15.0045 0.801856 15.1712 0.911687L17.2689 2.27325L24.1527 6.71998C24.5464 6.97435 24.5533 7.53968 24.1557 7.78788C23.9829 7.89571 23.8097 8.00269 23.6386 8.11121C23.0182 8.52331 22.3643 8.88274 21.7459 9.2985C21.5895 9.40359 21.387 9.41552 21.2243 9.32047C20.2029 8.72344 19.217 8.02923 18.2241 7.38968C16.7941 6.46864 15.3454 5.57709 13.9413 4.61614C13.8101 4.52637 13.732 4.37756 13.7315 4.21861C13.7277 3.17868 13.7178 2.13798 13.7197 1.09777Z" fill="#1F45FF"/>
<path d="M12.5015 1.09777C12.5005 0.595144 11.9672 0.296615 11.55 0.576884C11.383 0.689083 11.2167 0.801856 11.05 0.911687L8.95231 2.27325L2.06854 6.71998C1.67477 6.97435 1.66786 7.53968 2.06554 7.78788C2.23832 7.89571 2.41146 8.00269 2.58263 8.11121C3.20296 8.52331 3.85686 8.88274 4.47533 9.2985C4.63165 9.40359 4.83424 9.41552 4.99686 9.32047C6.01833 8.72344 7.00415 8.02923 7.99707 7.38968C9.42706 6.46864 10.8758 5.57709 12.2799 4.61614C12.4111 4.52637 12.4892 4.37756 12.4897 4.21861C12.4935 3.17868 12.5034 2.13798 12.5015 1.09777Z" fill="#1F45FF"/>
<path d="M12.5017 6.99299C12.5017 6.43713 11.8665 6.15107 11.407 6.46381C11.3703 6.48879 11.3323 6.51423 11.2927 6.54029L9.19506 7.90185L6.44538 9.65795C6.04907 9.91106 6.04072 10.4785 6.43967 10.7274C6.6109 10.8343 6.78246 10.9403 6.95209 11.0479C7.57243 11.46 8.22633 11.8194 8.84479 12.2352C9.00111 12.3402 9.20407 12.3525 9.36527 12.2551C10.3522 11.6585 11.132 10.9652 12.1238 10.3263C12.1238 10.3263 12.1238 10.3263 12.2591 10.2428C12.402 10.1546 12.4892 9.9988 12.4898 9.83088C12.4933 8.88523 12.5017 7.93895 12.5017 6.99299Z" fill="#1F45FF"/>
<path d="M13.7195 6.99299C13.7195 6.43713 14.3547 6.15107 14.8142 6.46381C14.8509 6.48879 14.8889 6.51423 14.9285 6.54029L17.0261 7.90185L19.7758 9.65795C20.1721 9.91106 20.1805 10.4785 19.7815 10.7274C19.6103 10.8343 19.4387 10.9403 19.2691 11.0479C18.6488 11.46 17.9949 11.8194 17.3764 12.2352C17.2201 12.3402 17.0171 12.3525 16.8559 12.2551C15.869 11.6585 15.0892 10.9652 14.0974 10.3263C14.0974 10.3263 14.0974 10.3263 13.9621 10.2428C13.8192 10.1546 13.732 9.9988 13.7314 9.83088C13.7279 8.88523 13.7195 7.93895 13.7195 6.99299Z" fill="#1F45FF"/>
<path fill-rule="evenodd" clip-rule="evenodd" d="M11.5592 29.9203C11.9877 30.1852 12.5103 29.8848 12.5058 29.381C12.4964 28.3272 12.4913 27.2733 12.4889 26.2192C12.4885 26.045 12.3949 25.8844 12.2434 25.7984C12.0328 25.6788 11.7524 25.52 11.4342 25.3396C10.0824 24.5735 8.04711 23.42 7.76739 23.2495C6.77059 22.6521 5.75928 22.0361 4.76843 21.4096C4.21214 21.0578 3.87945 20.4433 3.87945 19.7852V16.14C3.87945 15.3767 4.71958 14.9119 5.36625 15.3173L7.41776 16.6036C7.8086 16.8469 10.4072 18.3394 11.7983 19.1095C12.116 19.2854 12.4968 19.0558 12.4974 18.6927C12.499 17.7756 12.4999 16.8586 12.4991 15.9417C12.4989 15.7057 12.3725 15.4883 12.17 15.3671C11.6619 15.0632 11.1629 14.7423 10.6641 14.4216C10.3164 14.1979 9.96874 13.9743 9.61816 13.7566L3.81025 10.1431C3.06167 9.66264 2.31052 9.18631 1.55682 8.71408C1.46772 8.65828 1.37725 8.59942 1.28563 8.53981C1.27045 8.52993 1.25523 8.52003 1.23998 8.51012C0.843617 8.25247 0.375882 8.54179 0.375855 9.01454L0.375085 22.6361C0.375073 22.8592 0.48734 23.0677 0.675251 23.188C1.13146 23.4801 1.59414 23.763 2.05669 24.0458C2.36878 24.2366 2.68082 24.4274 2.99077 24.6209C4.94521 25.858 6.91374 27.072 8.89638 28.2628C9.37823 28.5544 9.8553 28.8548 10.3324 29.1551C10.7252 29.4024 11.1179 29.6497 11.5134 29.8922C11.5287 29.9015 11.5439 29.9109 11.5592 29.9203Z" fill="black"/>
<path fill-rule="evenodd" clip-rule="evenodd" d="M25.0063 8.44684C25.4348 8.18036 25.9588 8.48028 25.9543 8.98487C25.9283 11.9151 25.9351 14.8463 25.9418 17.7773C25.9454 19.3418 25.949 20.9062 25.9476 22.4703C25.9474 22.7056 25.8218 22.9225 25.6202 23.0439C25.1138 23.3489 24.6165 23.6709 24.1195 23.9928C23.773 24.2172 23.4266 24.4415 23.0774 24.6599L17.291 28.2852C16.5452 28.7672 15.7969 29.2451 15.046 29.7188C14.9211 29.7975 14.7759 29.8757 14.6228 29.9513C14.1982 30.1609 13.7112 29.8322 13.7112 29.3587V15.7316C13.7112 15.5092 13.8223 15.3009 14.0115 15.184C14.3936 14.9478 14.8023 14.7203 15.2092 14.4936C15.6444 14.2513 16.0777 14.01 16.4746 13.7604C18.4218 12.5193 20.383 11.3014 22.3583 10.1067C22.8383 9.81421 23.3136 9.51286 23.789 9.21149C24.1803 8.9634 24.5716 8.7153 24.9656 8.47209L25.0063 8.44684ZM21.7173 14.8253C22.0294 14.6196 22.4285 14.843 22.4287 15.2168L22.4324 20.2381C22.4326 20.6157 22.2119 20.9567 21.8895 21.1533C21.7007 21.2684 21.5142 21.3921 21.3295 21.5145C21.1802 21.6134 21.0322 21.7115 20.8852 21.8037L18.5058 23.3166C18.0204 23.6252 17.3855 23.2757 17.3868 22.7004L17.3973 18.0685C17.398 17.7413 17.5634 17.4363 17.8381 17.2585C18.959 16.5333 20.0908 15.8259 21.2335 15.1363C21.3962 15.0364 21.5568 14.931 21.7173 14.8253Z" fill="black"/>
<path d="M48.5605 20.6264C47.8275 21.2568 47.0066 21.7405 46.0977 22.0777C45.1888 22.4149 44.247 22.5834 43.2721 22.5834C42.5245 22.5834 41.8025 22.4845 41.1062 22.2866C40.4172 22.096 39.7685 21.8248 39.1602 21.473C38.5592 21.1138 38.0094 20.6851 37.511 20.1866C37.0126 19.6882 36.5838 19.1385 36.2247 18.5375C35.8728 17.9291 35.598 17.2804 35.4001 16.5915C35.2095 15.8951 35.1142 15.1732 35.1142 14.4255C35.1142 13.6779 35.2095 12.9559 35.4001 12.2596C35.598 11.5633 35.8728 10.9146 36.2247 10.3136C36.5838 9.70525 37.0126 9.15186 37.511 8.65345C38.0094 8.15503 38.5592 7.72991 39.1602 7.37809C39.7685 7.01893 40.4172 6.74407 41.1062 6.5535C41.8025 6.3556 42.5245 6.25665 43.2721 6.25665C44.247 6.25665 45.1888 6.42523 46.0977 6.7624C47.0066 7.09223 47.8275 7.57599 48.5605 8.21367L46.8893 10.9623C46.4275 10.4639 45.8815 10.0827 45.2511 9.81886C44.6208 9.54766 43.9611 9.41206 43.2721 9.41206C42.5758 9.41206 41.9235 9.544 41.3151 9.80787C40.7067 10.0717 40.1753 10.4309 39.7209 10.8853C39.2665 11.3324 38.9073 11.8638 38.6434 12.4795C38.3796 13.0879 38.2476 13.7366 38.2476 14.4255C38.2476 15.1145 38.3796 15.7632 38.6434 16.3716C38.9073 16.9726 39.2665 17.5003 39.7209 17.9548C40.1753 18.4092 40.7067 18.7684 41.3151 19.0322C41.9235 19.2961 42.5758 19.428 43.2721 19.428C43.9611 19.428 44.6208 19.2961 45.2511 19.0322C45.8815 18.761 46.4275 18.3762 46.8893 17.8778L48.5605 20.6264ZM61.2644 16.2506C61.2644 17.1302 61.1068 17.9511 60.7916 18.7134C60.4764 19.4683 60.0476 20.1243 59.5052 20.6814C58.9628 21.2311 58.3252 21.6672 57.5922 21.9897C56.8666 22.3049 56.086 22.4625 55.2504 22.4625C54.4221 22.4625 53.6415 22.3049 52.9086 21.9897C52.1829 21.6672 51.5452 21.2311 50.9955 20.6814C50.4531 20.1243 50.0243 19.4683 49.7092 18.7134C49.394 17.9511 49.2364 17.1302 49.2364 16.2506C49.2364 15.3564 49.394 14.5282 49.7092 13.7659C50.0243 13.0036 50.4531 12.3476 50.9955 11.7979C51.5452 11.2408 52.1829 10.8047 52.9086 10.4895C53.6415 10.1743 54.4221 10.0168 55.2504 10.0168C56.086 10.0168 56.8666 10.167 57.5922 10.4675C58.3252 10.7607 58.9628 11.1822 59.5052 11.7319C60.0476 12.2743 60.4764 12.9303 60.7916 13.6999C61.1068 14.4622 61.2644 15.3124 61.2644 16.2506ZM58.2409 16.2506C58.2409 15.7669 58.1602 15.3308 57.999 14.9423C57.8451 14.5465 57.6325 14.2093 57.3613 13.9308C57.0901 13.6449 56.7713 13.4287 56.4048 13.2821C56.0456 13.1282 55.6608 13.0512 55.2504 13.0512C54.8399 13.0512 54.4514 13.1282 54.085 13.2821C53.7258 13.4287 53.4106 13.6449 53.1394 13.9308C52.8756 14.2093 52.6667 14.5465 52.5128 14.9423C52.3588 15.3308 52.2819 15.7669 52.2819 16.2506C52.2819 16.7051 52.3588 17.1265 52.5128 17.515C52.6667 17.9035 52.8756 18.2406 53.1394 18.5265C53.4106 18.8123 53.7258 19.0396 54.085 19.2081C54.4514 19.3694 54.8399 19.45 55.2504 19.45C55.6608 19.45 56.0456 19.3731 56.4048 19.2191C56.7713 19.0652 57.0901 18.849 57.3613 18.5705C57.6325 18.2919 57.8451 17.9548 57.999 17.559C58.1602 17.1632 58.2409 16.7271 58.2409 16.2506ZM66.1512 22.2426H63.1497V10.4675H63.8753L64.8648 11.611C65.3486 11.1712 65.8946 10.834 66.503 10.5995C67.1187 10.3576 67.76 10.2366 68.427 10.2366C69.1453 10.2366 69.8233 10.3759 70.461 10.6544C71.0987 10.9256 71.6557 11.3031 72.1322 11.7869C72.6086 12.2633 72.9824 12.824 73.2536 13.469C73.5321 14.1067 73.6714 14.7884 73.6714 15.514V22.2426H70.6699V15.514C70.6699 15.2062 70.6113 14.9166 70.494 14.6454C70.3767 14.3669 70.2155 14.125 70.0102 13.9198C69.805 13.7146 69.5668 13.5533 69.2956 13.436C69.0244 13.3188 68.7349 13.2601 68.427 13.2601C68.1119 13.2601 67.815 13.3188 67.5365 13.436C67.258 13.5533 67.0161 13.7146 66.8108 13.9198C66.6056 14.125 66.4444 14.3669 66.3271 14.6454C66.2098 14.9166 66.1512 15.2062 66.1512 15.514V22.2426ZM87.4198 22.2426H86.6941L85.5287 20.6264C85.2429 20.883 84.9387 21.1248 84.6162 21.3521C84.301 21.572 83.9675 21.7662 83.6157 21.9348C83.2639 22.096 82.901 22.2243 82.5272 22.3196C82.1607 22.4149 81.7869 22.4625 81.4058 22.4625C80.5775 22.4625 79.7969 22.3086 79.064 22.0007C78.3383 21.6856 77.7007 21.2531 77.1509 20.7034C76.6085 20.1463 76.1797 19.4903 75.8646 18.7354C75.5494 17.9731 75.3918 17.1448 75.3918 16.2506C75.3918 15.3637 75.5494 14.5392 75.8646 13.7769C76.1797 13.0146 76.6085 12.3549 77.1509 11.7979C77.7007 11.2408 78.3383 10.8047 79.064 10.4895C79.7969 10.1743 80.5775 10.0168 81.4058 10.0168C81.6697 10.0168 81.9409 10.0387 82.2194 10.0827C82.5052 10.1267 82.7801 10.2 83.044 10.3026C83.3152 10.3979 83.568 10.5262 83.8026 10.6874C84.0371 10.8487 84.235 11.0466 84.3963 11.2811V5.78389H87.4198V22.2426ZM84.3963 16.2506C84.3963 15.8402 84.3157 15.4444 84.1544 15.0632C84.0005 14.6748 83.7879 14.3339 83.5167 14.0407C83.2455 13.7402 82.9267 13.502 82.5602 13.3261C82.2011 13.1429 81.8162 13.0512 81.4058 13.0512C80.9953 13.0512 80.6069 13.1245 80.2404 13.2711C79.8812 13.4177 79.566 13.6303 79.2948 13.9088C79.031 14.18 78.8221 14.5135 78.6682 14.9093C78.5142 15.3051 78.4373 15.7522 78.4373 16.2506C78.4373 16.6831 78.5142 17.0935 78.6682 17.482C78.8221 17.8705 79.031 18.2113 79.2948 18.5045C79.566 18.7977 79.8812 19.0286 80.2404 19.1971C80.6069 19.3657 80.9953 19.45 81.4058 19.45C81.8162 19.45 82.2011 19.3621 82.5602 19.1862C82.9267 19.0029 83.2455 18.7647 83.5167 18.4715C83.7879 18.171 84.0005 17.8302 84.1544 17.449C84.3157 17.0606 84.3963 16.6611 84.3963 16.2506ZM92.7794 26.7284V23.7049L94.4505 23.7269C94.7437 23.7269 95.0259 23.6792 95.2971 23.5839C95.5683 23.4887 95.8175 23.3567 96.0447 23.1881C96.2793 23.0196 96.4845 22.818 96.6604 22.5834C96.8363 22.3562 96.9792 22.107 97.0892 21.8358C96.7593 21.9751 96.4222 22.1143 96.0777 22.2536C95.7405 22.3929 95.3997 22.4625 95.0552 22.4625C94.3296 22.4625 93.6479 22.3342 93.0102 22.0777C92.3726 21.8212 91.8118 21.4583 91.3281 20.9892C90.8517 20.5128 90.4742 19.9374 90.1956 19.2631C89.9245 18.5815 89.7889 17.8192 89.7889 16.9763V10.4675H92.7794V16.9763C92.7794 17.3941 92.838 17.7605 92.9553 18.0757C93.0799 18.3836 93.2448 18.6438 93.45 18.8563C93.6552 19.0615 93.8935 19.2155 94.1647 19.3181C94.4432 19.4207 94.74 19.472 95.0552 19.472C95.3631 19.472 95.6526 19.4024 95.9238 19.2631C96.2023 19.1165 96.4442 18.9259 96.6494 18.6914C96.8546 18.4569 97.0159 18.193 97.1332 17.8998C97.2504 17.5993 97.3091 17.2914 97.3091 16.9763V10.4675H100.333V20.7584C100.325 21.5866 100.164 22.3636 99.8488 23.0892C99.5336 23.8148 99.1012 24.4488 98.5514 24.9912C98.0091 25.5336 97.375 25.9624 96.6494 26.2776C95.9238 26.5928 95.1468 26.7503 94.3186 26.7503L92.7794 26.7284Z" fill="black"/>
</svg>
