<svg width="135" height="41" viewBox="0 0 135 41" fill="none" xmlns="http://www.w3.org/2000/svg">
<path d="M17.7923 1.46377C17.7935 0.793605 18.5046 0.395568 19.0609 0.76926C19.2836 0.918859 19.5053 1.06922 19.7276 1.21566L22.5245 3.03109L31.7029 8.96006C32.2279 9.29921 32.2371 10.053 31.7069 10.3839C31.4765 10.5277 31.2457 10.6703 31.0174 10.815C30.1903 11.3645 29.3185 11.8437 28.4938 12.3981C28.2854 12.5382 28.0153 12.5541 27.7985 12.4274C26.4365 11.6313 25.1221 10.7057 23.7982 9.85298C21.8915 8.62494 19.9599 7.4362 18.0877 6.15494C17.9128 6.03524 17.8087 5.83683 17.808 5.6249C17.803 4.23832 17.7898 2.85072 17.7923 1.46377Z" fill="#4EC1F3"/>
<path d="M16.1686 1.46377C16.1674 0.793605 15.4563 0.395568 14.9 0.76926C14.6773 0.918859 14.4556 1.06922 14.2333 1.21566L11.4364 3.03109L2.25806 8.96006C1.73303 9.29921 1.72381 10.053 2.25405 10.3839C2.48443 10.5277 2.71528 10.6703 2.9435 10.815C3.77062 11.3645 4.64248 11.8437 5.4671 12.3981C5.67553 12.5382 5.94565 12.5541 6.16248 12.4274C7.52444 11.6313 8.83887 10.7057 10.1628 9.85298C12.0694 8.62494 14.001 7.4362 15.8732 6.15494C16.0481 6.03524 16.1522 5.83683 16.153 5.6249C16.158 4.23832 16.1712 2.85072 16.1686 1.46377Z" fill="#4EC1F3"/>
<path d="M16.1689 9.32402C16.1689 8.58288 15.322 8.20146 14.7093 8.61845C14.6604 8.65176 14.6097 8.68569 14.557 8.72042L11.7601 10.5358L8.09384 12.8773C7.56542 13.2148 7.55429 13.9714 8.08622 14.3033C8.31454 14.4458 8.54328 14.5871 8.76945 14.7305C9.59657 15.28 10.4684 15.7592 11.2931 16.3136C11.5015 16.4537 11.7721 16.4701 11.987 16.3401C13.303 15.5447 14.3427 14.6202 15.665 13.7685C15.665 13.7685 15.665 13.7685 15.8455 13.6571C16.036 13.5395 16.1522 13.3318 16.1531 13.1079C16.1577 11.847 16.169 10.5853 16.1689 9.32402Z" fill="#4EC1F3"/>
<path d="M17.792 9.32402C17.792 8.58288 18.6389 8.20146 19.2516 8.61845C19.3006 8.65176 19.3512 8.68569 19.404 8.72042L22.2009 10.5358L25.8671 12.8773C26.3955 13.2148 26.4066 13.9714 25.8747 14.3033C25.6464 14.4458 25.4177 14.5871 25.1915 14.7305C24.3644 15.28 23.4925 15.7592 22.6679 16.3136C22.4595 16.4537 22.1888 16.4701 21.9739 16.3401C20.658 15.5447 19.6183 14.6202 18.2959 13.7685C18.2959 13.7685 18.2959 13.7685 18.1154 13.6571C17.9249 13.5395 17.8087 13.3318 17.8079 13.1079C17.8033 11.847 17.792 10.5853 17.792 9.32402Z" fill="#4EC1F3"/>
<path fill-rule="evenodd" clip-rule="evenodd" d="M14.9116 39.8939C15.4829 40.247 16.1798 39.8465 16.1738 39.1748C16.1612 37.7697 16.1544 36.3645 16.1512 34.9591C16.1507 34.7268 16.0259 34.5126 15.8239 34.398C15.5431 34.2386 15.1693 34.0267 14.7449 33.7863C12.9426 32.7648 10.2288 31.2268 9.85587 30.9994C8.52681 30.2029 7.17839 29.3816 5.85725 28.5462C5.11553 28.0772 4.67196 27.2579 4.67196 26.3803V21.5201C4.67196 20.5024 5.79212 19.8826 6.65435 20.4232L9.3897 22.1383C9.91081 22.4627 13.3757 24.4527 15.2304 25.4795C15.654 25.714 16.1617 25.4078 16.1625 24.9237C16.1647 23.701 16.1659 22.4783 16.1649 21.2557C16.1646 20.9411 15.9961 20.6512 15.726 20.4896C15.0485 20.0844 14.3832 19.6566 13.7182 19.2289C13.2545 18.9307 12.791 18.6326 12.3236 18.3423L4.57969 13.5243C3.58157 12.8836 2.58004 12.2485 1.57511 11.6189C1.45631 11.5445 1.33569 11.466 1.21353 11.3865C1.19328 11.3734 1.17299 11.3602 1.15266 11.3469C0.624174 11.0034 0.000526803 11.3892 0.000490998 12.0195L-0.000536257 30.1816C-0.000552307 30.4791 0.149138 30.757 0.399685 30.9175C1.00796 31.3069 1.62487 31.6841 2.2416 32.0612C2.65773 32.3156 3.07378 32.57 3.48704 32.828C6.09297 34.4775 8.71767 36.0961 11.3612 37.6838C12.0037 38.0726 12.6398 38.4731 13.2759 38.8737C13.7996 39.2034 14.3233 39.5331 14.8506 39.8563C14.8709 39.8688 14.8912 39.8813 14.9116 39.8939Z" fill="white"/>
<path fill-rule="evenodd" clip-rule="evenodd" d="M32.8415 11.2625C33.4128 10.9072 34.1114 11.3071 34.1054 11.9799C34.0708 15.8868 34.0798 19.7951 34.0888 23.7031C34.0936 25.7891 34.0984 27.875 34.0965 29.9605C34.0962 30.2742 33.9287 30.5634 33.66 30.7252C32.9848 31.1319 32.3217 31.5613 31.659 31.9905C31.197 32.2896 30.7352 32.5887 30.2695 32.8799L22.5544 37.7136C21.56 38.3563 20.5622 38.9935 19.561 39.6251C19.3945 39.7301 19.2009 39.8343 18.9967 39.9351C18.4307 40.2146 17.7812 39.7763 17.7812 39.145V20.9755C17.7812 20.679 17.9294 20.4012 18.1816 20.2454C18.6912 19.9305 19.236 19.627 19.7787 19.3249C20.3589 19.0017 20.9366 18.68 21.4658 18.3472C24.062 16.6924 26.677 15.0686 29.3107 13.4757C29.9508 13.0857 30.5845 12.6839 31.2183 12.282C31.74 11.9512 32.2618 11.6204 32.7871 11.2962L32.8415 11.2625ZM28.456 19.7671C28.8723 19.4929 29.4043 19.7907 29.4046 20.2891L29.4095 26.9842C29.4098 27.4877 29.1156 27.9423 28.6857 28.2045C28.434 28.358 28.1852 28.5228 27.939 28.686C27.74 28.818 27.5426 28.9488 27.3466 29.0716L24.1741 31.0888C23.5268 31.5004 22.6804 31.0343 22.6821 30.2673L22.696 24.0914C22.697 23.6552 22.9175 23.2484 23.2838 23.0114C24.7784 22.0445 26.2875 21.1013 27.8111 20.1818C28.028 20.0486 28.2421 19.908 28.456 19.7671Z" fill="white"/>
<path d="M64.2473 28.5018C63.27 29.3423 62.1754 29.9873 60.9636 30.4368C59.7518 30.8864 58.4959 31.1112 57.1962 31.1112C56.1993 31.1112 55.2367 30.9792 54.3083 30.7154C53.3896 30.4613 52.5247 30.0997 51.7136 29.6306C50.9122 29.1517 50.1792 28.58 49.5147 27.9154C48.8501 27.2509 48.2784 26.5179 47.7995 25.7166C47.3304 24.9054 46.964 24.0405 46.7001 23.1219C46.446 22.1934 46.319 21.2308 46.319 20.234C46.319 19.2371 46.446 18.2745 46.7001 17.3461C46.964 16.4177 47.3304 15.5528 47.7995 14.7514C48.2784 13.9403 48.8501 13.2024 49.5147 12.5378C50.1792 11.8733 50.9122 11.3065 51.7136 10.8374C52.5247 10.3585 53.3896 9.99202 54.3083 9.73792C55.2367 9.47405 56.1993 9.34212 57.1962 9.34212C58.4959 9.34212 59.7518 9.5669 60.9636 10.0164C62.1754 10.4562 63.27 11.1012 64.2473 11.9515L62.0191 15.6163C61.4034 14.9517 60.6753 14.4436 59.8348 14.0917C58.9944 13.7301 58.1148 13.5493 57.1962 13.5493C56.2677 13.5493 55.3979 13.7252 54.5868 14.0771C53.7757 14.4289 53.0671 14.9078 52.4612 15.5137C51.8553 16.1098 51.3764 16.8184 51.0246 17.6393C50.6728 18.4504 50.4969 19.3153 50.4969 20.234C50.4969 21.1526 50.6728 22.0175 51.0246 22.8287C51.3764 23.63 51.8553 24.3337 52.4612 24.9396C53.0671 25.5455 53.7757 26.0244 54.5868 26.3762C55.3979 26.728 56.2677 26.904 57.1962 26.904C58.1148 26.904 58.9944 26.728 59.8348 26.3762C60.6753 26.0146 61.4034 25.5016 62.0191 24.837L64.2473 28.5018ZM81.1858 22.6674C81.1858 23.8402 80.9757 24.9347 80.5555 25.9511C80.1352 26.9577 79.5635 27.8324 78.8403 28.5751C78.1171 29.3081 77.2669 29.8896 76.2896 30.3196C75.3221 30.7398 74.2813 30.9499 73.1672 30.9499C72.0628 30.9499 71.022 30.7398 70.0447 30.3196C69.0772 29.8896 68.227 29.3081 67.494 28.5751C66.7708 27.8324 66.1991 26.9577 65.7789 25.9511C65.3586 24.9347 65.1485 23.8402 65.1485 22.6674C65.1485 21.4751 65.3586 20.3708 65.7789 19.3544C66.1991 18.338 66.7708 17.4634 67.494 16.7304C68.227 15.9877 69.0772 15.4062 70.0447 14.9859C71.022 14.5657 72.0628 14.3556 73.1672 14.3556C74.2813 14.3556 75.3221 14.5559 76.2896 14.9566C77.2669 15.3475 78.1171 15.9095 78.8403 16.6424C79.5635 17.3656 80.1352 18.2403 80.5555 19.2665C80.9757 20.2828 81.1858 21.4165 81.1858 22.6674ZM77.1545 22.6674C77.1545 22.0224 77.047 21.4409 76.832 20.923C76.6268 20.3952 76.3433 19.9457 75.9818 19.5743C75.6202 19.1932 75.195 18.9049 74.7064 18.7094C74.2275 18.5042 73.7144 18.4016 73.1672 18.4016C72.6199 18.4016 72.1019 18.5042 71.6133 18.7094C71.1344 18.9049 70.7142 19.1932 70.3526 19.5743C70.0008 19.9457 69.7222 20.3952 69.517 20.923C69.3118 21.4409 69.2092 22.0224 69.2092 22.6674C69.2092 23.2733 69.3118 23.8353 69.517 24.3532C69.7222 24.8712 70.0008 25.3208 70.3526 25.7019C70.7142 26.083 71.1344 26.386 71.6133 26.6108C72.1019 26.8258 72.6199 26.9333 73.1672 26.9333C73.7144 26.9333 74.2275 26.8307 74.7064 26.6254C75.195 26.4202 75.6202 26.1319 75.9818 25.7605C76.3433 25.3892 76.6268 24.9396 76.832 24.4119C77.047 23.8841 77.1545 23.3027 77.1545 22.6674ZM87.7016 30.6567H83.6996V14.9566H84.6671L85.9864 16.4812C86.6314 15.8948 87.3595 15.4453 88.1707 15.1325C88.9916 14.81 89.8467 14.6488 90.736 14.6488C91.6938 14.6488 92.5978 14.8345 93.448 15.2058C94.2982 15.5674 95.041 16.0707 95.6762 16.7157C96.3115 17.351 96.8099 18.0986 97.1715 18.9586C97.5428 19.8089 97.7285 20.7177 97.7285 21.6852V30.6567H93.7265V21.6852C93.7265 21.2748 93.6484 20.8888 93.492 20.5272C93.3356 20.1558 93.1206 19.8333 92.847 19.5596C92.5733 19.286 92.2557 19.071 91.8941 18.9146C91.5325 18.7583 91.1465 18.6801 90.736 18.6801C90.3158 18.6801 89.92 18.7583 89.5486 18.9146C89.1773 19.071 88.8548 19.286 88.5811 19.5596C88.3075 19.8333 88.0925 20.1558 87.9361 20.5272C87.7797 20.8888 87.7016 21.2748 87.7016 21.6852V30.6567ZM116.06 30.6567H115.092L113.538 28.5018C113.157 28.8439 112.752 29.1664 112.322 29.4693C111.901 29.7625 111.457 30.0215 110.988 30.2463C110.518 30.4613 110.035 30.6323 109.536 30.7594C109.048 30.8864 108.549 30.9499 108.041 30.9499C106.937 30.9499 105.896 30.7447 104.919 30.3342C103.951 29.914 103.101 29.3374 102.368 28.6044C101.645 27.8617 101.073 26.987 100.653 25.9804C100.233 24.964 100.022 23.8597 100.022 22.6674C100.022 21.4849 100.233 20.3855 100.653 19.3691C101.073 18.3527 101.645 17.4731 102.368 16.7304C103.101 15.9877 103.951 15.4062 104.919 14.9859C105.896 14.5657 106.937 14.3556 108.041 14.3556C108.393 14.3556 108.754 14.3849 109.126 14.4436C109.507 14.5022 109.873 14.5999 110.225 14.7367C110.587 14.8638 110.924 15.0348 111.237 15.2498C111.55 15.4648 111.813 15.7287 112.028 16.0414V8.71177H116.06V30.6567ZM112.028 22.6674C112.028 22.1201 111.921 21.5924 111.706 21.0842C111.501 20.5663 111.217 20.1118 110.856 19.7209C110.494 19.3202 110.069 19.0026 109.58 18.768C109.101 18.5237 108.588 18.4016 108.041 18.4016C107.494 18.4016 106.976 18.4993 106.487 18.6948C106.008 18.8902 105.588 19.1736 105.226 19.545C104.875 19.9066 104.596 20.3513 104.391 20.879C104.186 21.4067 104.083 22.0029 104.083 22.6674C104.083 23.244 104.186 23.7913 104.391 24.3093C104.596 24.8272 104.875 25.2817 105.226 25.6726C105.588 26.0635 106.008 26.3713 106.487 26.5961C106.976 26.8209 107.494 26.9333 108.041 26.9333C108.588 26.9333 109.101 26.816 109.58 26.5815C110.069 26.3371 110.494 26.0195 110.856 25.6286C111.217 25.2279 111.501 24.7735 111.706 24.2653C111.921 23.7473 112.028 23.2147 112.028 22.6674ZM123.206 36.6377V32.6064L125.434 32.6357C125.825 32.6357 126.201 32.5722 126.563 32.4452C126.924 32.3181 127.257 32.1422 127.56 31.9174C127.872 31.6927 128.146 31.4239 128.381 31.1112C128.615 30.8082 128.806 30.4759 128.952 30.1143C128.512 30.3 128.063 30.4857 127.604 30.6714C127.154 30.8571 126.7 30.9499 126.24 30.9499C125.273 30.9499 124.364 30.7789 123.514 30.4368C122.663 30.0948 121.916 29.611 121.271 28.9856C120.636 28.3503 120.132 27.5832 119.761 26.6841C119.399 25.7752 119.218 24.7588 119.218 23.6349V14.9566H123.206V23.6349C123.206 24.192 123.284 24.6806 123.44 25.1009C123.606 25.5113 123.826 25.8583 124.1 26.1417C124.374 26.4153 124.691 26.6205 125.053 26.7574C125.424 26.8942 125.82 26.9626 126.24 26.9626C126.651 26.9626 127.037 26.8698 127.398 26.6841C127.77 26.4886 128.092 26.2345 128.366 25.9218C128.64 25.6091 128.855 25.2572 129.011 24.8663C129.167 24.4656 129.245 24.0552 129.245 23.6349V14.9566H133.277V28.6777C133.267 29.7821 133.052 30.818 132.632 31.7855C132.211 32.753 131.635 33.5984 130.902 34.3216C130.179 35.0448 129.333 35.6165 128.366 36.0367C127.398 36.4569 126.362 36.6671 125.258 36.6671L123.206 36.6377Z" fill="white"/>
</svg>
